<svg width="512" height="512" viewBox="0 0 512 512" fill="none" xmlns="http://www.w3.org/2000/svg">
<path opacity="0.4" d="M362.667 192C362.667 274.56 290.987 341.333 202.667 341.333L182.827 365.227L171.093 379.307C161.067 391.253 141.867 388.693 135.253 374.4L106.667 311.467C67.84 284.16 42.6667 240.853 42.6667 192C42.6667 109.44 114.347 42.6667 202.667 42.6667C267.093 42.6667 322.773 78.2934 347.733 129.493C357.333 148.48 362.667 169.6 362.667 192Z" fill="red"/>
<path d="M469.333 274.347C469.333 323.2 444.16 366.507 405.333 393.813L376.747 456.747C370.133 471.04 350.933 473.813 340.907 461.653L309.333 423.68C257.707 423.68 211.627 400.853 182.827 365.227L202.667 341.333C290.987 341.333 362.667 274.56 362.667 192C362.667 169.6 357.333 148.48 347.733 129.493C417.493 145.493 469.333 204.373 469.333 274.347ZM256 208H149.333C140.587 208 133.333 200.747 133.333 192C133.333 183.253 140.587 176 149.333 176H256C264.747 176 272 183.253 272 192C272 200.747 264.747 208 256 208Z" fill="green"/>
</svg>
