<svg width="362" height="512" viewBox="0 0 362 512" fill="white" xmlns="http://www.w3.org/2000/svg">
<path d="M287.984 2.19001C291.204 4.00554 293.697 6.82943 295.053 10.2004C296.41 13.5713 296.551 17.29 295.454 20.749L236.187 208.002H345.539C348.753 208.001 351.897 208.915 354.582 210.631C357.268 212.347 359.378 214.79 360.652 217.659C361.926 220.528 362.308 223.697 361.751 226.774C361.194 229.852 359.722 232.703 357.518 234.977L94.2548 506.961C91.7075 509.595 88.3178 511.312 84.6382 511.833C80.9587 512.354 77.2062 511.647 73.9924 509.829C70.7786 508.01 68.2931 505.187 66.9409 501.819C65.5887 498.451 65.4497 494.737 66.5463 491.282L125.813 303.997H16.4605C13.2469 303.998 10.1032 303.084 7.41762 301.368C4.732 299.652 2.62199 297.209 1.34806 294.34C0.0741277 291.471 -0.30795 288.303 0.248986 285.225C0.805923 282.148 2.27749 279.296 4.48204 277.022L267.745 5.03785C270.289 2.40757 273.674 0.691492 277.348 0.16864C281.023 -0.354212 284.771 0.346912 287.984 2.15801V2.19001ZM54.535 271.999H148.092C150.667 271.998 153.206 272.585 155.505 273.713C157.804 274.84 159.799 276.477 161.329 278.491C162.859 280.505 163.882 282.84 164.315 285.308C164.748 287.776 164.579 290.308 163.822 292.701L118.804 434.869L307.432 240H213.908C211.333 240.001 208.794 239.414 206.495 238.286C204.196 237.159 202.201 235.522 200.671 233.508C199.141 231.494 198.118 229.16 197.685 226.691C197.252 224.223 197.421 221.691 198.178 219.298L243.196 77.1297L54.535 271.999Z" fill="url(#paint0_linear_18_183)"/>
<path d="M54.535 271.999H148.092C150.667 271.998 153.206 272.585 155.505 273.713C157.804 274.84 159.799 276.477 161.329 278.491C162.859 280.505 163.882 282.84 164.315 285.308C164.748 287.776 164.579 290.308 163.822 292.701L118.804 434.869L307.432 240H213.908C211.333 240.001 208.794 239.414 206.495 238.286C204.196 237.159 202.201 235.522 200.671 233.508C199.141 231.494 198.118 229.16 197.685 226.691C197.252 224.223 197.421 221.691 198.178 219.298L243.196 77.1297L54.535 271.999Z" fill="url(#paint1_linear_18_183)"/>
<defs>
<linearGradient id="paint0_linear_18_183" x1="181" y1="0" x2="181" y2="512" gradientUnits="userSpaceOnUse">
<stop stop-color="#16C1DB"/>
<stop offset="0.9999" stop-color="#A816DB"/>
<stop offset="1" stop-color="#A816DB" stop-opacity="0"/>
</linearGradient>
<linearGradient id="paint1_linear_18_183" x1="181" y1="0" x2="181" y2="512" gradientUnits="userSpaceOnUse">
<stop stop-color="#16C1DB"/>
<stop offset="0.9999" stop-color="#A816DB"/>
<stop offset="1" stop-color="#A816DB" stop-opacity="0"/>
</linearGradient>
</defs>
</svg>
