<svg width="512" height="512" viewBox="0 0 512 512" fill="none" xmlns="http://www.w3.org/2000/svg">
<path d="M448 112H298.667C289.92 112 282.667 104.747 282.667 96C282.667 87.2533 289.92 80 298.667 80H448C456.747 80 464 87.2533 464 96C464 104.747 456.747 112 448 112Z" fill="black"/>
<path opacity="0.4" d="M448 218.667H298.667C289.92 218.667 282.667 211.413 282.667 202.667C282.667 193.92 289.92 186.667 298.667 186.667H448C456.747 186.667 464 193.92 464 202.667C464 211.413 456.747 218.667 448 218.667Z" fill="black"/>
<path d="M448 325.333H64C55.2533 325.333 48 318.08 48 309.333C48 300.587 55.2533 293.333 64 293.333H448C456.747 293.333 464 300.587 464 309.333C464 318.08 456.747 325.333 448 325.333Z" fill="black"/>
<path opacity="0.4" d="M448 432H64C55.2533 432 48 424.746 48 416C48 407.253 55.2533 400 64 400H448C456.747 400 464 407.253 464 416C464 424.746 456.747 432 448 432ZM168.96 74.6665H108.373C78.5067 74.6665 64 89.1732 64 119.04V179.84C64 209.707 78.5067 224.213 108.373 224.213H169.173C199.04 224.213 213.547 209.707 213.547 179.84V119.04C213.333 89.1732 198.827 74.6665 168.96 74.6665Z" fill="black"/>
</svg>
