<?xml version="1.0"?>
<svg xmlns="http://www.w3.org/2000/svg" xmlns:xlink="http://www.w3.org/1999/xlink" version="1.1" width="500px" height="500px" viewBox="0 0 500 500"><defs><rect id="block" width="12" height="12" fill="#000000" fill-opacity="1"/></defs><rect x="0" y="0" width="500" height="500" fill="#ffffff" fill-opacity="1"/><use x="4" y="4" xlink:href="#block"/><use x="16" y="4" xlink:href="#block"/><use x="28" y="4" xlink:href="#block"/><use x="40" y="4" xlink:href="#block"/><use x="52" y="4" xlink:href="#block"/><use x="64" y="4" xlink:href="#block"/><use x="76" y="4" xlink:href="#block"/><use x="100" y="4" xlink:href="#block"/><use x="112" y="4" xlink:href="#block"/><use x="124" y="4" xlink:href="#block"/><use x="148" y="4" xlink:href="#block"/><use x="172" y="4" xlink:href="#block"/><use x="196" y="4" xlink:href="#block"/><use x="244" y="4" xlink:href="#block"/><use x="292" y="4" xlink:href="#block"/><use x="316" y="4" xlink:href="#block"/><use x="352" y="4" xlink:href="#block"/><use x="364" y="4" xlink:href="#block"/><use x="388" y="4" xlink:href="#block"/><use x="412" y="4" xlink:href="#block"/><use x="424" y="4" xlink:href="#block"/><use x="436" y="4" xlink:href="#block"/><use x="448" y="4" xlink:href="#block"/><use x="460" y="4" xlink:href="#block"/><use x="472" y="4" xlink:href="#block"/><use x="484" y="4" xlink:href="#block"/><use x="4" y="16" xlink:href="#block"/><use x="76" y="16" xlink:href="#block"/><use x="124" y="16" xlink:href="#block"/><use x="172" y="16" xlink:href="#block"/><use x="196" y="16" xlink:href="#block"/><use x="208" y="16" xlink:href="#block"/><use x="220" y="16" xlink:href="#block"/><use x="232" y="16" xlink:href="#block"/><use x="256" y="16" xlink:href="#block"/><use x="304" y="16" xlink:href="#block"/><use x="316" y="16" xlink:href="#block"/><use x="340" y="16" xlink:href="#block"/><use x="364" y="16" xlink:href="#block"/><use x="388" y="16" xlink:href="#block"/><use x="412" y="16" xlink:href="#block"/><use x="484" y="16" xlink:href="#block"/><use x="4" y="28" xlink:href="#block"/><use x="28" y="28" xlink:href="#block"/><use x="40" y="28" xlink:href="#block"/><use x="52" y="28" xlink:href="#block"/><use x="76" y="28" xlink:href="#block"/><use x="100" y="28" xlink:href="#block"/><use x="112" y="28" xlink:href="#block"/><use x="124" y="28" xlink:href="#block"/><use x="136" y="28" xlink:href="#block"/><use x="148" y="28" xlink:href="#block"/><use x="244" y="28" xlink:href="#block"/><use x="256" y="28" xlink:href="#block"/><use x="280" y="28" xlink:href="#block"/><use x="304" y="28" xlink:href="#block"/><use x="340" y="28" xlink:href="#block"/><use x="376" y="28" xlink:href="#block"/><use x="388" y="28" xlink:href="#block"/><use x="412" y="28" xlink:href="#block"/><use x="436" y="28" xlink:href="#block"/><use x="448" y="28" xlink:href="#block"/><use x="460" y="28" xlink:href="#block"/><use x="484" y="28" xlink:href="#block"/><use x="4" y="40" xlink:href="#block"/><use x="28" y="40" xlink:href="#block"/><use x="40" y="40" xlink:href="#block"/><use x="52" y="40" xlink:href="#block"/><use x="76" y="40" xlink:href="#block"/><use x="124" y="40" xlink:href="#block"/><use x="136" y="40" xlink:href="#block"/><use x="184" y="40" xlink:href="#block"/><use x="196" y="40" xlink:href="#block"/><use x="208" y="40" xlink:href="#block"/><use x="220" y="40" xlink:href="#block"/><use x="244" y="40" xlink:href="#block"/><use x="292" y="40" xlink:href="#block"/><use x="364" y="40" xlink:href="#block"/><use x="388" y="40" xlink:href="#block"/><use x="412" y="40" xlink:href="#block"/><use x="436" y="40" xlink:href="#block"/><use x="448" y="40" xlink:href="#block"/><use x="460" y="40" xlink:href="#block"/><use x="484" y="40" xlink:href="#block"/><use x="4" y="52" xlink:href="#block"/><use x="28" y="52" xlink:href="#block"/><use x="40" y="52" xlink:href="#block"/><use x="52" y="52" xlink:href="#block"/><use x="76" y="52" xlink:href="#block"/><use x="100" y="52" xlink:href="#block"/><use x="148" y="52" xlink:href="#block"/><use x="160" y="52" xlink:href="#block"/><use x="172" y="52" xlink:href="#block"/><use x="208" y="52" xlink:href="#block"/><use x="256" y="52" xlink:href="#block"/><use x="280" y="52" xlink:href="#block"/><use x="304" y="52" xlink:href="#block"/><use x="328" y="52" xlink:href="#block"/><use x="388" y="52" xlink:href="#block"/><use x="412" y="52" xlink:href="#block"/><use x="436" y="52" xlink:href="#block"/><use x="448" y="52" xlink:href="#block"/><use x="460" y="52" xlink:href="#block"/><use x="484" y="52" xlink:href="#block"/><use x="4" y="64" xlink:href="#block"/><use x="76" y="64" xlink:href="#block"/><use x="112" y="64" xlink:href="#block"/><use x="136" y="64" xlink:href="#block"/><use x="160" y="64" xlink:href="#block"/><use x="172" y="64" xlink:href="#block"/><use x="184" y="64" xlink:href="#block"/><use x="196" y="64" xlink:href="#block"/><use x="208" y="64" xlink:href="#block"/><use x="232" y="64" xlink:href="#block"/><use x="292" y="64" xlink:href="#block"/><use x="316" y="64" xlink:href="#block"/><use x="352" y="64" xlink:href="#block"/><use x="364" y="64" xlink:href="#block"/><use x="376" y="64" xlink:href="#block"/><use x="412" y="64" xlink:href="#block"/><use x="484" y="64" xlink:href="#block"/><use x="4" y="76" xlink:href="#block"/><use x="16" y="76" xlink:href="#block"/><use x="28" y="76" xlink:href="#block"/><use x="40" y="76" xlink:href="#block"/><use x="52" y="76" xlink:href="#block"/><use x="64" y="76" xlink:href="#block"/><use x="76" y="76" xlink:href="#block"/><use x="100" y="76" xlink:href="#block"/><use x="124" y="76" xlink:href="#block"/><use x="148" y="76" xlink:href="#block"/><use x="172" y="76" xlink:href="#block"/><use x="196" y="76" xlink:href="#block"/><use x="220" y="76" xlink:href="#block"/><use x="244" y="76" xlink:href="#block"/><use x="268" y="76" xlink:href="#block"/><use x="292" y="76" xlink:href="#block"/><use x="316" y="76" xlink:href="#block"/><use x="340" y="76" xlink:href="#block"/><use x="364" y="76" xlink:href="#block"/><use x="388" y="76" xlink:href="#block"/><use x="412" y="76" xlink:href="#block"/><use x="424" y="76" xlink:href="#block"/><use x="436" y="76" xlink:href="#block"/><use x="448" y="76" xlink:href="#block"/><use x="460" y="76" xlink:href="#block"/><use x="472" y="76" xlink:href="#block"/><use x="484" y="76" xlink:href="#block"/><use x="100" y="88" xlink:href="#block"/><use x="112" y="88" xlink:href="#block"/><use x="148" y="88" xlink:href="#block"/><use x="172" y="88" xlink:href="#block"/><use x="184" y="88" xlink:href="#block"/><use x="208" y="88" xlink:href="#block"/><use x="220" y="88" xlink:href="#block"/><use x="232" y="88" xlink:href="#block"/><use x="256" y="88" xlink:href="#block"/><use x="280" y="88" xlink:href="#block"/><use x="304" y="88" xlink:href="#block"/><use x="328" y="88" xlink:href="#block"/><use x="340" y="88" xlink:href="#block"/><use x="352" y="88" xlink:href="#block"/><use x="364" y="88" xlink:href="#block"/><use x="376" y="88" xlink:href="#block"/><use x="388" y="88" xlink:href="#block"/><use x="64" y="100" xlink:href="#block"/><use x="76" y="100" xlink:href="#block"/><use x="136" y="100" xlink:href="#block"/><use x="148" y="100" xlink:href="#block"/><use x="160" y="100" xlink:href="#block"/><use x="172" y="100" xlink:href="#block"/><use x="184" y="100" xlink:href="#block"/><use x="196" y="100" xlink:href="#block"/><use x="220" y="100" xlink:href="#block"/><use x="256" y="100" xlink:href="#block"/><use x="304" y="100" xlink:href="#block"/><use x="328" y="100" xlink:href="#block"/><use x="352" y="100" xlink:href="#block"/><use x="388" y="100" xlink:href="#block"/><use x="412" y="100" xlink:href="#block"/><use x="436" y="100" xlink:href="#block"/><use x="460" y="100" xlink:href="#block"/><use x="484" y="100" xlink:href="#block"/><use x="4" y="112" xlink:href="#block"/><use x="16" y="112" xlink:href="#block"/><use x="52" y="112" xlink:href="#block"/><use x="88" y="112" xlink:href="#block"/><use x="112" y="112" xlink:href="#block"/><use x="124" y="112" xlink:href="#block"/><use x="136" y="112" xlink:href="#block"/><use x="160" y="112" xlink:href="#block"/><use x="184" y="112" xlink:href="#block"/><use x="208" y="112" xlink:href="#block"/><use x="220" y="112" xlink:href="#block"/><use x="244" y="112" xlink:href="#block"/><use x="268" y="112" xlink:href="#block"/><use x="304" y="112" xlink:href="#block"/><use x="316" y="112" xlink:href="#block"/><use x="340" y="112" xlink:href="#block"/><use x="376" y="112" xlink:href="#block"/><use x="400" y="112" xlink:href="#block"/><use x="412" y="112" xlink:href="#block"/><use x="424" y="112" xlink:href="#block"/><use x="436" y="112" xlink:href="#block"/><use x="460" y="112" xlink:href="#block"/><use x="484" y="112" xlink:href="#block"/><use x="28" y="124" xlink:href="#block"/><use x="40" y="124" xlink:href="#block"/><use x="52" y="124" xlink:href="#block"/><use x="76" y="124" xlink:href="#block"/><use x="100" y="124" xlink:href="#block"/><use x="112" y="124" xlink:href="#block"/><use x="124" y="124" xlink:href="#block"/><use x="136" y="124" xlink:href="#block"/><use x="184" y="124" xlink:href="#block"/><use x="208" y="124" xlink:href="#block"/><use x="220" y="124" xlink:href="#block"/><use x="232" y="124" xlink:href="#block"/><use x="268" y="124" xlink:href="#block"/><use x="292" y="124" xlink:href="#block"/><use x="304" y="124" xlink:href="#block"/><use x="352" y="124" xlink:href="#block"/><use x="376" y="124" xlink:href="#block"/><use x="400" y="124" xlink:href="#block"/><use x="460" y="124" xlink:href="#block"/><use x="472" y="124" xlink:href="#block"/><use x="16" y="136" xlink:href="#block"/><use x="28" y="136" xlink:href="#block"/><use x="40" y="136" xlink:href="#block"/><use x="64" y="136" xlink:href="#block"/><use x="136" y="136" xlink:href="#block"/><use x="184" y="136" xlink:href="#block"/><use x="196" y="136" xlink:href="#block"/><use x="208" y="136" xlink:href="#block"/><use x="220" y="136" xlink:href="#block"/><use x="232" y="136" xlink:href="#block"/><use x="256" y="136" xlink:href="#block"/><use x="292" y="136" xlink:href="#block"/><use x="316" y="136" xlink:href="#block"/><use x="328" y="136" xlink:href="#block"/><use x="340" y="136" xlink:href="#block"/><use x="352" y="136" xlink:href="#block"/><use x="364" y="136" xlink:href="#block"/><use x="376" y="136" xlink:href="#block"/><use x="400" y="136" xlink:href="#block"/><use x="424" y="136" xlink:href="#block"/><use x="436" y="136" xlink:href="#block"/><use x="460" y="136" xlink:href="#block"/><use x="4" y="148" xlink:href="#block"/><use x="40" y="148" xlink:href="#block"/><use x="52" y="148" xlink:href="#block"/><use x="76" y="148" xlink:href="#block"/><use x="88" y="148" xlink:href="#block"/><use x="136" y="148" xlink:href="#block"/><use x="148" y="148" xlink:href="#block"/><use x="160" y="148" xlink:href="#block"/><use x="172" y="148" xlink:href="#block"/><use x="184" y="148" xlink:href="#block"/><use x="220" y="148" xlink:href="#block"/><use x="244" y="148" xlink:href="#block"/><use x="268" y="148" xlink:href="#block"/><use x="280" y="148" xlink:href="#block"/><use x="304" y="148" xlink:href="#block"/><use x="316" y="148" xlink:href="#block"/><use x="328" y="148" xlink:href="#block"/><use x="376" y="148" xlink:href="#block"/><use x="388" y="148" xlink:href="#block"/><use x="400" y="148" xlink:href="#block"/><use x="412" y="148" xlink:href="#block"/><use x="436" y="148" xlink:href="#block"/><use x="472" y="148" xlink:href="#block"/><use x="484" y="148" xlink:href="#block"/><use x="28" y="160" xlink:href="#block"/><use x="52" y="160" xlink:href="#block"/><use x="88" y="160" xlink:href="#block"/><use x="124" y="160" xlink:href="#block"/><use x="136" y="160" xlink:href="#block"/><use x="148" y="160" xlink:href="#block"/><use x="172" y="160" xlink:href="#block"/><use x="196" y="160" xlink:href="#block"/><use x="208" y="160" xlink:href="#block"/><use x="220" y="160" xlink:href="#block"/><use x="280" y="160" xlink:href="#block"/><use x="388" y="160" xlink:href="#block"/><use x="400" y="160" xlink:href="#block"/><use x="424" y="160" xlink:href="#block"/><use x="4" y="172" xlink:href="#block"/><use x="16" y="172" xlink:href="#block"/><use x="52" y="172" xlink:href="#block"/><use x="76" y="172" xlink:href="#block"/><use x="88" y="172" xlink:href="#block"/><use x="112" y="172" xlink:href="#block"/><use x="148" y="172" xlink:href="#block"/><use x="172" y="172" xlink:href="#block"/><use x="208" y="172" xlink:href="#block"/><use x="220" y="172" xlink:href="#block"/><use x="232" y="172" xlink:href="#block"/><use x="244" y="172" xlink:href="#block"/><use x="256" y="172" xlink:href="#block"/><use x="268" y="172" xlink:href="#block"/><use x="328" y="172" xlink:href="#block"/><use x="340" y="172" xlink:href="#block"/><use x="352" y="172" xlink:href="#block"/><use x="376" y="172" xlink:href="#block"/><use x="460" y="172" xlink:href="#block"/><use x="472" y="172" xlink:href="#block"/><use x="28" y="184" xlink:href="#block"/><use x="40" y="184" xlink:href="#block"/><use x="52" y="184" xlink:href="#block"/><use x="88" y="184" xlink:href="#block"/><use x="100" y="184" xlink:href="#block"/><use x="220" y="184" xlink:href="#block"/><use x="244" y="184" xlink:href="#block"/><use x="256" y="184" xlink:href="#block"/><use x="280" y="184" xlink:href="#block"/><use x="304" y="184" xlink:href="#block"/><use x="340" y="184" xlink:href="#block"/><use x="364" y="184" xlink:href="#block"/><use x="376" y="184" xlink:href="#block"/><use x="400" y="184" xlink:href="#block"/><use x="424" y="184" xlink:href="#block"/><use x="436" y="184" xlink:href="#block"/><use x="448" y="184" xlink:href="#block"/><use x="472" y="184" xlink:href="#block"/><use x="4" y="196" xlink:href="#block"/><use x="16" y="196" xlink:href="#block"/><use x="40" y="196" xlink:href="#block"/><use x="52" y="196" xlink:href="#block"/><use x="76" y="196" xlink:href="#block"/><use x="112" y="196" xlink:href="#block"/><use x="124" y="196" xlink:href="#block"/><use x="148" y="196" xlink:href="#block"/><use x="160" y="196" xlink:href="#block"/><use x="172" y="196" xlink:href="#block"/><use x="196" y="196" xlink:href="#block"/><use x="220" y="196" xlink:href="#block"/><use x="232" y="196" xlink:href="#block"/><use x="244" y="196" xlink:href="#block"/><use x="256" y="196" xlink:href="#block"/><use x="268" y="196" xlink:href="#block"/><use x="280" y="196" xlink:href="#block"/><use x="292" y="196" xlink:href="#block"/><use x="304" y="196" xlink:href="#block"/><use x="328" y="196" xlink:href="#block"/><use x="340" y="196" xlink:href="#block"/><use x="376" y="196" xlink:href="#block"/><use x="388" y="196" xlink:href="#block"/><use x="400" y="196" xlink:href="#block"/><use x="436" y="196" xlink:href="#block"/><use x="460" y="196" xlink:href="#block"/><use x="472" y="196" xlink:href="#block"/><use x="4" y="208" xlink:href="#block"/><use x="52" y="208" xlink:href="#block"/><use x="64" y="208" xlink:href="#block"/><use x="88" y="208" xlink:href="#block"/><use x="100" y="208" xlink:href="#block"/><use x="136" y="208" xlink:href="#block"/><use x="160" y="208" xlink:href="#block"/><use x="172" y="208" xlink:href="#block"/><use x="184" y="208" xlink:href="#block"/><use x="196" y="208" xlink:href="#block"/><use x="220" y="208" xlink:href="#block"/><use x="244" y="208" xlink:href="#block"/><use x="256" y="208" xlink:href="#block"/><use x="268" y="208" xlink:href="#block"/><use x="280" y="208" xlink:href="#block"/><use x="352" y="208" xlink:href="#block"/><use x="376" y="208" xlink:href="#block"/><use x="424" y="208" xlink:href="#block"/><use x="436" y="208" xlink:href="#block"/><use x="484" y="208" xlink:href="#block"/><use x="4" y="220" xlink:href="#block"/><use x="16" y="220" xlink:href="#block"/><use x="28" y="220" xlink:href="#block"/><use x="40" y="220" xlink:href="#block"/><use x="76" y="220" xlink:href="#block"/><use x="100" y="220" xlink:href="#block"/><use x="112" y="220" xlink:href="#block"/><use x="124" y="220" xlink:href="#block"/><use x="160" y="220" xlink:href="#block"/><use x="172" y="220" xlink:href="#block"/><use x="232" y="220" xlink:href="#block"/><use x="244" y="220" xlink:href="#block"/><use x="256" y="220" xlink:href="#block"/><use x="292" y="220" xlink:href="#block"/><use x="304" y="220" xlink:href="#block"/><use x="316" y="220" xlink:href="#block"/><use x="340" y="220" xlink:href="#block"/><use x="376" y="220" xlink:href="#block"/><use x="388" y="220" xlink:href="#block"/><use x="400" y="220" xlink:href="#block"/><use x="412" y="220" xlink:href="#block"/><use x="472" y="220" xlink:href="#block"/><use x="484" y="220" xlink:href="#block"/><use x="4" y="232" xlink:href="#block"/><use x="64" y="232" xlink:href="#block"/><use x="136" y="232" xlink:href="#block"/><use x="148" y="232" xlink:href="#block"/><use x="184" y="232" xlink:href="#block"/><use x="196" y="232" xlink:href="#block"/><use x="208" y="232" xlink:href="#block"/><use x="232" y="232" xlink:href="#block"/><use x="256" y="232" xlink:href="#block"/><use x="316" y="232" xlink:href="#block"/><use x="328" y="232" xlink:href="#block"/><use x="340" y="232" xlink:href="#block"/><use x="352" y="232" xlink:href="#block"/><use x="364" y="232" xlink:href="#block"/><use x="388" y="232" xlink:href="#block"/><use x="412" y="232" xlink:href="#block"/><use x="424" y="232" xlink:href="#block"/><use x="436" y="232" xlink:href="#block"/><use x="484" y="232" xlink:href="#block"/><use x="4" y="244" xlink:href="#block"/><use x="28" y="244" xlink:href="#block"/><use x="40" y="244" xlink:href="#block"/><use x="52" y="244" xlink:href="#block"/><use x="64" y="244" xlink:href="#block"/><use x="76" y="244" xlink:href="#block"/><use x="88" y="244" xlink:href="#block"/><use x="112" y="244" xlink:href="#block"/><use x="148" y="244" xlink:href="#block"/><use x="160" y="244" xlink:href="#block"/><use x="184" y="244" xlink:href="#block"/><use x="232" y="244" xlink:href="#block"/><use x="244" y="244" xlink:href="#block"/><use x="256" y="244" xlink:href="#block"/><use x="280" y="244" xlink:href="#block"/><use x="292" y="244" xlink:href="#block"/><use x="328" y="244" xlink:href="#block"/><use x="340" y="244" xlink:href="#block"/><use x="388" y="244" xlink:href="#block"/><use x="412" y="244" xlink:href="#block"/><use x="436" y="244" xlink:href="#block"/><use x="448" y="244" xlink:href="#block"/><use x="460" y="244" xlink:href="#block"/><use x="4" y="256" xlink:href="#block"/><use x="28" y="256" xlink:href="#block"/><use x="88" y="256" xlink:href="#block"/><use x="100" y="256" xlink:href="#block"/><use x="136" y="256" xlink:href="#block"/><use x="172" y="256" xlink:href="#block"/><use x="196" y="256" xlink:href="#block"/><use x="208" y="256" xlink:href="#block"/><use x="220" y="256" xlink:href="#block"/><use x="232" y="256" xlink:href="#block"/><use x="244" y="256" xlink:href="#block"/><use x="256" y="256" xlink:href="#block"/><use x="280" y="256" xlink:href="#block"/><use x="304" y="256" xlink:href="#block"/><use x="316" y="256" xlink:href="#block"/><use x="328" y="256" xlink:href="#block"/><use x="340" y="256" xlink:href="#block"/><use x="364" y="256" xlink:href="#block"/><use x="400" y="256" xlink:href="#block"/><use x="424" y="256" xlink:href="#block"/><use x="448" y="256" xlink:href="#block"/><use x="484" y="256" xlink:href="#block"/><use x="4" y="268" xlink:href="#block"/><use x="28" y="268" xlink:href="#block"/><use x="40" y="268" xlink:href="#block"/><use x="76" y="268" xlink:href="#block"/><use x="88" y="268" xlink:href="#block"/><use x="112" y="268" xlink:href="#block"/><use x="124" y="268" xlink:href="#block"/><use x="136" y="268" xlink:href="#block"/><use x="172" y="268" xlink:href="#block"/><use x="268" y="268" xlink:href="#block"/><use x="352" y="268" xlink:href="#block"/><use x="388" y="268" xlink:href="#block"/><use x="460" y="268" xlink:href="#block"/><use x="28" y="280" xlink:href="#block"/><use x="40" y="280" xlink:href="#block"/><use x="52" y="280" xlink:href="#block"/><use x="64" y="280" xlink:href="#block"/><use x="100" y="280" xlink:href="#block"/><use x="112" y="280" xlink:href="#block"/><use x="160" y="280" xlink:href="#block"/><use x="172" y="280" xlink:href="#block"/><use x="184" y="280" xlink:href="#block"/><use x="232" y="280" xlink:href="#block"/><use x="244" y="280" xlink:href="#block"/><use x="256" y="280" xlink:href="#block"/><use x="304" y="280" xlink:href="#block"/><use x="328" y="280" xlink:href="#block"/><use x="340" y="280" xlink:href="#block"/><use x="364" y="280" xlink:href="#block"/><use x="376" y="280" xlink:href="#block"/><use x="388" y="280" xlink:href="#block"/><use x="412" y="280" xlink:href="#block"/><use x="424" y="280" xlink:href="#block"/><use x="448" y="280" xlink:href="#block"/><use x="460" y="280" xlink:href="#block"/><use x="484" y="280" xlink:href="#block"/><use x="4" y="292" xlink:href="#block"/><use x="40" y="292" xlink:href="#block"/><use x="52" y="292" xlink:href="#block"/><use x="76" y="292" xlink:href="#block"/><use x="88" y="292" xlink:href="#block"/><use x="100" y="292" xlink:href="#block"/><use x="112" y="292" xlink:href="#block"/><use x="160" y="292" xlink:href="#block"/><use x="196" y="292" xlink:href="#block"/><use x="208" y="292" xlink:href="#block"/><use x="232" y="292" xlink:href="#block"/><use x="268" y="292" xlink:href="#block"/><use x="280" y="292" xlink:href="#block"/><use x="292" y="292" xlink:href="#block"/><use x="304" y="292" xlink:href="#block"/><use x="316" y="292" xlink:href="#block"/><use x="328" y="292" xlink:href="#block"/><use x="340" y="292" xlink:href="#block"/><use x="376" y="292" xlink:href="#block"/><use x="388" y="292" xlink:href="#block"/><use x="412" y="292" xlink:href="#block"/><use x="424" y="292" xlink:href="#block"/><use x="448" y="292" xlink:href="#block"/><use x="460" y="292" xlink:href="#block"/><use x="472" y="292" xlink:href="#block"/><use x="4" y="304" xlink:href="#block"/><use x="16" y="304" xlink:href="#block"/><use x="28" y="304" xlink:href="#block"/><use x="40" y="304" xlink:href="#block"/><use x="52" y="304" xlink:href="#block"/><use x="64" y="304" xlink:href="#block"/><use x="112" y="304" xlink:href="#block"/><use x="124" y="304" xlink:href="#block"/><use x="172" y="304" xlink:href="#block"/><use x="196" y="304" xlink:href="#block"/><use x="208" y="304" xlink:href="#block"/><use x="220" y="304" xlink:href="#block"/><use x="232" y="304" xlink:href="#block"/><use x="244" y="304" xlink:href="#block"/><use x="280" y="304" xlink:href="#block"/><use x="292" y="304" xlink:href="#block"/><use x="340" y="304" xlink:href="#block"/><use x="376" y="304" xlink:href="#block"/><use x="400" y="304" xlink:href="#block"/><use x="424" y="304" xlink:href="#block"/><use x="448" y="304" xlink:href="#block"/><use x="472" y="304" xlink:href="#block"/><use x="16" y="316" xlink:href="#block"/><use x="64" y="316" xlink:href="#block"/><use x="76" y="316" xlink:href="#block"/><use x="100" y="316" xlink:href="#block"/><use x="112" y="316" xlink:href="#block"/><use x="172" y="316" xlink:href="#block"/><use x="208" y="316" xlink:href="#block"/><use x="232" y="316" xlink:href="#block"/><use x="256" y="316" xlink:href="#block"/><use x="268" y="316" xlink:href="#block"/><use x="280" y="316" xlink:href="#block"/><use x="328" y="316" xlink:href="#block"/><use x="340" y="316" xlink:href="#block"/><use x="352" y="316" xlink:href="#block"/><use x="376" y="316" xlink:href="#block"/><use x="388" y="316" xlink:href="#block"/><use x="412" y="316" xlink:href="#block"/><use x="436" y="316" xlink:href="#block"/><use x="460" y="316" xlink:href="#block"/><use x="28" y="328" xlink:href="#block"/><use x="64" y="328" xlink:href="#block"/><use x="88" y="328" xlink:href="#block"/><use x="112" y="328" xlink:href="#block"/><use x="136" y="328" xlink:href="#block"/><use x="148" y="328" xlink:href="#block"/><use x="184" y="328" xlink:href="#block"/><use x="196" y="328" xlink:href="#block"/><use x="220" y="328" xlink:href="#block"/><use x="232" y="328" xlink:href="#block"/><use x="256" y="328" xlink:href="#block"/><use x="268" y="328" xlink:href="#block"/><use x="280" y="328" xlink:href="#block"/><use x="292" y="328" xlink:href="#block"/><use x="328" y="328" xlink:href="#block"/><use x="364" y="328" xlink:href="#block"/><use x="376" y="328" xlink:href="#block"/><use x="388" y="328" xlink:href="#block"/><use x="424" y="328" xlink:href="#block"/><use x="436" y="328" xlink:href="#block"/><use x="16" y="340" xlink:href="#block"/><use x="64" y="340" xlink:href="#block"/><use x="76" y="340" xlink:href="#block"/><use x="88" y="340" xlink:href="#block"/><use x="100" y="340" xlink:href="#block"/><use x="124" y="340" xlink:href="#block"/><use x="136" y="340" xlink:href="#block"/><use x="172" y="340" xlink:href="#block"/><use x="232" y="340" xlink:href="#block"/><use x="292" y="340" xlink:href="#block"/><use x="304" y="340" xlink:href="#block"/><use x="328" y="340" xlink:href="#block"/><use x="352" y="340" xlink:href="#block"/><use x="364" y="340" xlink:href="#block"/><use x="388" y="340" xlink:href="#block"/><use x="412" y="340" xlink:href="#block"/><use x="424" y="340" xlink:href="#block"/><use x="4" y="352" xlink:href="#block"/><use x="16" y="352" xlink:href="#block"/><use x="28" y="352" xlink:href="#block"/><use x="52" y="352" xlink:href="#block"/><use x="88" y="352" xlink:href="#block"/><use x="100" y="352" xlink:href="#block"/><use x="112" y="352" xlink:href="#block"/><use x="136" y="352" xlink:href="#block"/><use x="148" y="352" xlink:href="#block"/><use x="160" y="352" xlink:href="#block"/><use x="196" y="352" xlink:href="#block"/><use x="208" y="352" xlink:href="#block"/><use x="232" y="352" xlink:href="#block"/><use x="292" y="352" xlink:href="#block"/><use x="316" y="352" xlink:href="#block"/><use x="340" y="352" xlink:href="#block"/><use x="424" y="352" xlink:href="#block"/><use x="448" y="352" xlink:href="#block"/><use x="484" y="352" xlink:href="#block"/><use x="4" y="364" xlink:href="#block"/><use x="16" y="364" xlink:href="#block"/><use x="64" y="364" xlink:href="#block"/><use x="76" y="364" xlink:href="#block"/><use x="88" y="364" xlink:href="#block"/><use x="100" y="364" xlink:href="#block"/><use x="136" y="364" xlink:href="#block"/><use x="220" y="364" xlink:href="#block"/><use x="232" y="364" xlink:href="#block"/><use x="244" y="364" xlink:href="#block"/><use x="256" y="364" xlink:href="#block"/><use x="268" y="364" xlink:href="#block"/><use x="280" y="364" xlink:href="#block"/><use x="292" y="364" xlink:href="#block"/><use x="304" y="364" xlink:href="#block"/><use x="340" y="364" xlink:href="#block"/><use x="376" y="364" xlink:href="#block"/><use x="412" y="364" xlink:href="#block"/><use x="424" y="364" xlink:href="#block"/><use x="448" y="364" xlink:href="#block"/><use x="472" y="364" xlink:href="#block"/><use x="484" y="364" xlink:href="#block"/><use x="4" y="376" xlink:href="#block"/><use x="64" y="376" xlink:href="#block"/><use x="88" y="376" xlink:href="#block"/><use x="112" y="376" xlink:href="#block"/><use x="136" y="376" xlink:href="#block"/><use x="160" y="376" xlink:href="#block"/><use x="172" y="376" xlink:href="#block"/><use x="244" y="376" xlink:href="#block"/><use x="280" y="376" xlink:href="#block"/><use x="292" y="376" xlink:href="#block"/><use x="304" y="376" xlink:href="#block"/><use x="328" y="376" xlink:href="#block"/><use x="340" y="376" xlink:href="#block"/><use x="364" y="376" xlink:href="#block"/><use x="400" y="376" xlink:href="#block"/><use x="412" y="376" xlink:href="#block"/><use x="424" y="376" xlink:href="#block"/><use x="436" y="376" xlink:href="#block"/><use x="472" y="376" xlink:href="#block"/><use x="484" y="376" xlink:href="#block"/><use x="4" y="388" xlink:href="#block"/><use x="28" y="388" xlink:href="#block"/><use x="40" y="388" xlink:href="#block"/><use x="52" y="388" xlink:href="#block"/><use x="76" y="388" xlink:href="#block"/><use x="88" y="388" xlink:href="#block"/><use x="112" y="388" xlink:href="#block"/><use x="124" y="388" xlink:href="#block"/><use x="148" y="388" xlink:href="#block"/><use x="172" y="388" xlink:href="#block"/><use x="184" y="388" xlink:href="#block"/><use x="244" y="388" xlink:href="#block"/><use x="256" y="388" xlink:href="#block"/><use x="268" y="388" xlink:href="#block"/><use x="292" y="388" xlink:href="#block"/><use x="316" y="388" xlink:href="#block"/><use x="364" y="388" xlink:href="#block"/><use x="388" y="388" xlink:href="#block"/><use x="400" y="388" xlink:href="#block"/><use x="412" y="388" xlink:href="#block"/><use x="424" y="388" xlink:href="#block"/><use x="436" y="388" xlink:href="#block"/><use x="448" y="388" xlink:href="#block"/><use x="460" y="388" xlink:href="#block"/><use x="472" y="388" xlink:href="#block"/><use x="100" y="400" xlink:href="#block"/><use x="124" y="400" xlink:href="#block"/><use x="136" y="400" xlink:href="#block"/><use x="148" y="400" xlink:href="#block"/><use x="160" y="400" xlink:href="#block"/><use x="196" y="400" xlink:href="#block"/><use x="220" y="400" xlink:href="#block"/><use x="316" y="400" xlink:href="#block"/><use x="388" y="400" xlink:href="#block"/><use x="436" y="400" xlink:href="#block"/><use x="460" y="400" xlink:href="#block"/><use x="472" y="400" xlink:href="#block"/><use x="484" y="400" xlink:href="#block"/><use x="4" y="412" xlink:href="#block"/><use x="16" y="412" xlink:href="#block"/><use x="28" y="412" xlink:href="#block"/><use x="40" y="412" xlink:href="#block"/><use x="52" y="412" xlink:href="#block"/><use x="64" y="412" xlink:href="#block"/><use x="76" y="412" xlink:href="#block"/><use x="136" y="412" xlink:href="#block"/><use x="148" y="412" xlink:href="#block"/><use x="160" y="412" xlink:href="#block"/><use x="172" y="412" xlink:href="#block"/><use x="184" y="412" xlink:href="#block"/><use x="208" y="412" xlink:href="#block"/><use x="232" y="412" xlink:href="#block"/><use x="244" y="412" xlink:href="#block"/><use x="280" y="412" xlink:href="#block"/><use x="292" y="412" xlink:href="#block"/><use x="316" y="412" xlink:href="#block"/><use x="328" y="412" xlink:href="#block"/><use x="340" y="412" xlink:href="#block"/><use x="364" y="412" xlink:href="#block"/><use x="388" y="412" xlink:href="#block"/><use x="412" y="412" xlink:href="#block"/><use x="436" y="412" xlink:href="#block"/><use x="460" y="412" xlink:href="#block"/><use x="4" y="424" xlink:href="#block"/><use x="76" y="424" xlink:href="#block"/><use x="100" y="424" xlink:href="#block"/><use x="112" y="424" xlink:href="#block"/><use x="136" y="424" xlink:href="#block"/><use x="160" y="424" xlink:href="#block"/><use x="172" y="424" xlink:href="#block"/><use x="184" y="424" xlink:href="#block"/><use x="208" y="424" xlink:href="#block"/><use x="244" y="424" xlink:href="#block"/><use x="256" y="424" xlink:href="#block"/><use x="268" y="424" xlink:href="#block"/><use x="280" y="424" xlink:href="#block"/><use x="292" y="424" xlink:href="#block"/><use x="304" y="424" xlink:href="#block"/><use x="328" y="424" xlink:href="#block"/><use x="340" y="424" xlink:href="#block"/><use x="376" y="424" xlink:href="#block"/><use x="388" y="424" xlink:href="#block"/><use x="436" y="424" xlink:href="#block"/><use x="448" y="424" xlink:href="#block"/><use x="460" y="424" xlink:href="#block"/><use x="472" y="424" xlink:href="#block"/><use x="484" y="424" xlink:href="#block"/><use x="4" y="436" xlink:href="#block"/><use x="28" y="436" xlink:href="#block"/><use x="40" y="436" xlink:href="#block"/><use x="52" y="436" xlink:href="#block"/><use x="76" y="436" xlink:href="#block"/><use x="112" y="436" xlink:href="#block"/><use x="124" y="436" xlink:href="#block"/><use x="148" y="436" xlink:href="#block"/><use x="160" y="436" xlink:href="#block"/><use x="208" y="436" xlink:href="#block"/><use x="232" y="436" xlink:href="#block"/><use x="244" y="436" xlink:href="#block"/><use x="256" y="436" xlink:href="#block"/><use x="292" y="436" xlink:href="#block"/><use x="304" y="436" xlink:href="#block"/><use x="328" y="436" xlink:href="#block"/><use x="340" y="436" xlink:href="#block"/><use x="352" y="436" xlink:href="#block"/><use x="364" y="436" xlink:href="#block"/><use x="376" y="436" xlink:href="#block"/><use x="388" y="436" xlink:href="#block"/><use x="400" y="436" xlink:href="#block"/><use x="412" y="436" xlink:href="#block"/><use x="424" y="436" xlink:href="#block"/><use x="436" y="436" xlink:href="#block"/><use x="484" y="436" xlink:href="#block"/><use x="4" y="448" xlink:href="#block"/><use x="28" y="448" xlink:href="#block"/><use x="40" y="448" xlink:href="#block"/><use x="52" y="448" xlink:href="#block"/><use x="76" y="448" xlink:href="#block"/><use x="112" y="448" xlink:href="#block"/><use x="124" y="448" xlink:href="#block"/><use x="136" y="448" xlink:href="#block"/><use x="172" y="448" xlink:href="#block"/><use x="184" y="448" xlink:href="#block"/><use x="196" y="448" xlink:href="#block"/><use x="220" y="448" xlink:href="#block"/><use x="232" y="448" xlink:href="#block"/><use x="256" y="448" xlink:href="#block"/><use x="304" y="448" xlink:href="#block"/><use x="316" y="448" xlink:href="#block"/><use x="388" y="448" xlink:href="#block"/><use x="436" y="448" xlink:href="#block"/><use x="472" y="448" xlink:href="#block"/><use x="4" y="460" xlink:href="#block"/><use x="28" y="460" xlink:href="#block"/><use x="40" y="460" xlink:href="#block"/><use x="52" y="460" xlink:href="#block"/><use x="76" y="460" xlink:href="#block"/><use x="124" y="460" xlink:href="#block"/><use x="172" y="460" xlink:href="#block"/><use x="184" y="460" xlink:href="#block"/><use x="196" y="460" xlink:href="#block"/><use x="208" y="460" xlink:href="#block"/><use x="232" y="460" xlink:href="#block"/><use x="244" y="460" xlink:href="#block"/><use x="268" y="460" xlink:href="#block"/><use x="292" y="460" xlink:href="#block"/><use x="304" y="460" xlink:href="#block"/><use x="316" y="460" xlink:href="#block"/><use x="352" y="460" xlink:href="#block"/><use x="376" y="460" xlink:href="#block"/><use x="412" y="460" xlink:href="#block"/><use x="424" y="460" xlink:href="#block"/><use x="436" y="460" xlink:href="#block"/><use x="448" y="460" xlink:href="#block"/><use x="472" y="460" xlink:href="#block"/><use x="4" y="472" xlink:href="#block"/><use x="76" y="472" xlink:href="#block"/><use x="112" y="472" xlink:href="#block"/><use x="124" y="472" xlink:href="#block"/><use x="136" y="472" xlink:href="#block"/><use x="160" y="472" xlink:href="#block"/><use x="184" y="472" xlink:href="#block"/><use x="208" y="472" xlink:href="#block"/><use x="220" y="472" xlink:href="#block"/><use x="232" y="472" xlink:href="#block"/><use x="244" y="472" xlink:href="#block"/><use x="256" y="472" xlink:href="#block"/><use x="268" y="472" xlink:href="#block"/><use x="280" y="472" xlink:href="#block"/><use x="292" y="472" xlink:href="#block"/><use x="328" y="472" xlink:href="#block"/><use x="352" y="472" xlink:href="#block"/><use x="364" y="472" xlink:href="#block"/><use x="400" y="472" xlink:href="#block"/><use x="412" y="472" xlink:href="#block"/><use x="424" y="472" xlink:href="#block"/><use x="460" y="472" xlink:href="#block"/><use x="472" y="472" xlink:href="#block"/><use x="4" y="484" xlink:href="#block"/><use x="16" y="484" xlink:href="#block"/><use x="28" y="484" xlink:href="#block"/><use x="40" y="484" xlink:href="#block"/><use x="52" y="484" xlink:href="#block"/><use x="64" y="484" xlink:href="#block"/><use x="76" y="484" xlink:href="#block"/><use x="148" y="484" xlink:href="#block"/><use x="160" y="484" xlink:href="#block"/><use x="172" y="484" xlink:href="#block"/><use x="220" y="484" xlink:href="#block"/><use x="232" y="484" xlink:href="#block"/><use x="244" y="484" xlink:href="#block"/><use x="256" y="484" xlink:href="#block"/><use x="268" y="484" xlink:href="#block"/><use x="292" y="484" xlink:href="#block"/><use x="304" y="484" xlink:href="#block"/><use x="316" y="484" xlink:href="#block"/><use x="328" y="484" xlink:href="#block"/><use x="340" y="484" xlink:href="#block"/><use x="364" y="484" xlink:href="#block"/><use x="400" y="484" xlink:href="#block"/><use x="424" y="484" xlink:href="#block"/><use x="436" y="484" xlink:href="#block"/><use x="448" y="484" xlink:href="#block"/></svg>
