<svg width="512" height="512" viewBox="0 0 512 512" fill="none" xmlns="http://www.w3.org/2000/svg">
<path d="M408 336H344C339.582 336 336 339.582 336 344V408C336 412.418 339.582 416 344 416H408C412.418 416 416 412.418 416 408V344C416 339.582 412.418 336 408 336Z" fill="url(#paint0_linear_142_135)"/>
<path d="M328 272H280C275.582 272 272 275.582 272 280V328C272 332.418 275.582 336 280 336H328C332.418 336 336 332.418 336 328V280C336 275.582 332.418 272 328 272Z" fill="url(#paint1_linear_142_135)"/>
<path d="M472 416H424C419.582 416 416 419.582 416 424V472C416 476.418 419.582 480 424 480H472C476.418 480 480 476.418 480 472V424C480 419.582 476.418 416 472 416Z" fill="url(#paint2_linear_142_135)"/>
<path d="M472 272H440C435.582 272 432 275.582 432 280V312C432 316.418 435.582 320 440 320H472C476.418 320 480 316.418 480 312V280C480 275.582 476.418 272 472 272Z" fill="url(#paint3_linear_142_135)"/>
<path d="M312 432H280C275.582 432 272 435.582 272 440V472C272 476.418 275.582 480 280 480H312C316.418 480 320 476.418 320 472V440C320 435.582 316.418 432 312 432Z" fill="url(#paint4_linear_142_135)"/>
<path d="M448 32H304C295.513 32 287.374 35.3714 281.373 41.3726C275.371 47.3737 272 55.5131 272 64V208C272 216.487 275.371 224.626 281.373 230.627C287.374 236.629 295.513 240 304 240H448C456.487 240 464.626 236.629 470.627 230.627C476.629 224.626 480 216.487 480 208V64C480 55.5131 476.629 47.3737 470.627 41.3726C464.626 35.3714 456.487 32 448 32ZM416 168C416 170.122 415.157 172.157 413.657 173.657C412.157 175.157 410.122 176 408 176H344C341.878 176 339.843 175.157 338.343 173.657C336.843 172.157 336 170.122 336 168V104C336 101.878 336.843 99.8434 338.343 98.3431C339.843 96.8429 341.878 96 344 96H408C410.122 96 412.157 96.8429 413.657 98.3431C415.157 99.8434 416 101.878 416 104V168ZM208 32H64C55.5131 32 47.3737 35.3714 41.3726 41.3726C35.3714 47.3737 32 55.5131 32 64V208C32 216.487 35.3714 224.626 41.3726 230.627C47.3737 236.629 55.5131 240 64 240H208C216.487 240 224.626 236.629 230.627 230.627C236.629 224.626 240 216.487 240 208V64C240 55.5131 236.629 47.3737 230.627 41.3726C224.626 35.3714 216.487 32 208 32ZM176 168C176 170.122 175.157 172.157 173.657 173.657C172.157 175.157 170.122 176 168 176H104C101.878 176 99.8434 175.157 98.3431 173.657C96.8429 172.157 96 170.122 96 168V104C96 101.878 96.8429 99.8434 98.3431 98.3431C99.8434 96.8429 101.878 96 104 96H168C170.122 96 172.157 96.8429 173.657 98.3431C175.157 99.8434 176 101.878 176 104V168ZM208 272H64C55.5131 272 47.3737 275.371 41.3726 281.373C35.3714 287.374 32 295.513 32 304V448C32 456.487 35.3714 464.626 41.3726 470.627C47.3737 476.629 55.5131 480 64 480H208C216.487 480 224.626 476.629 230.627 470.627C236.629 464.626 240 456.487 240 448V304C240 295.513 236.629 287.374 230.627 281.373C224.626 275.371 216.487 272 208 272ZM176 408C176 410.122 175.157 412.157 173.657 413.657C172.157 415.157 170.122 416 168 416H104C101.878 416 99.8434 415.157 98.3431 413.657C96.8429 412.157 96 410.122 96 408V344C96 341.878 96.8429 339.843 98.3431 338.343C99.8434 336.843 101.878 336 104 336H168C170.122 336 172.157 336.843 173.657 338.343C175.157 339.843 176 341.878 176 344V408Z" fill="url(#paint5_linear_142_135)"/>
<defs>
<linearGradient id="paint0_linear_142_135" x1="376" y1="336" x2="376" y2="416" gradientUnits="userSpaceOnUse">
<stop stop-color="#16C1DB"/>
<stop offset="1" stop-color="#A816DB"/>
</linearGradient>
<linearGradient id="paint1_linear_142_135" x1="304" y1="272" x2="304" y2="336" gradientUnits="userSpaceOnUse">
<stop stop-color="#16C1DB"/>
<stop offset="1" stop-color="#A816DB"/>
</linearGradient>
<linearGradient id="paint2_linear_142_135" x1="448" y1="416" x2="448" y2="480" gradientUnits="userSpaceOnUse">
<stop stop-color="#16C1DB"/>
<stop offset="1" stop-color="#A816DB"/>
</linearGradient>
<linearGradient id="paint3_linear_142_135" x1="456" y1="272" x2="456" y2="320" gradientUnits="userSpaceOnUse">
<stop stop-color="#16C1DB"/>
<stop offset="1" stop-color="#A816DB"/>
</linearGradient>
<linearGradient id="paint4_linear_142_135" x1="296" y1="432" x2="296" y2="480" gradientUnits="userSpaceOnUse">
<stop stop-color="#16C1DB"/>
<stop offset="1" stop-color="#A816DB"/>
</linearGradient>
<linearGradient id="paint5_linear_142_135" x1="256" y1="32" x2="256" y2="480" gradientUnits="userSpaceOnUse">
<stop stop-color="#16C1DB"/>
<stop offset="1" stop-color="#A816DB"/>
</linearGradient>
</defs>
</svg>
