<svg width="512" height="512" viewBox="0 0 512 512" fill="none" xmlns="http://www.w3.org/2000/svg">
<path opacity="0.4" d="M59.0932 213.333C49.9198 213.333 42.6665 206.08 42.6665 196.907V147.627C42.7229 119.807 53.7992 93.1426 73.4708 73.471C93.1425 53.7994 119.807 42.723 147.626 42.6667H196.906C206.08 42.6667 213.333 49.92 213.333 59.0933C213.333 68.2667 206.08 75.52 196.906 75.52H147.626C107.733 75.52 75.5198 107.947 75.5198 147.627V196.907C75.5198 206.08 68.0532 213.333 59.0932 213.333ZM452.906 213.333C448.55 213.333 444.372 211.603 441.291 208.522C438.21 205.441 436.48 201.263 436.48 196.907V147.627C436.48 107.733 404.053 75.52 364.373 75.52H315.093C310.737 75.52 306.558 73.7893 303.478 70.7087C300.397 67.6281 298.666 63.45 298.666 59.0933C298.666 54.7367 300.397 50.5585 303.478 47.4779C306.558 44.3973 310.737 42.6667 315.093 42.6667H364.373C392.193 42.723 418.857 53.7994 438.529 73.471C458.2 93.1426 469.277 119.807 469.333 147.627V196.907C469.333 206.08 462.08 213.333 452.906 213.333Z" fill="url(#paint0_linear_142_142)"/>
<path d="M364.416 469.333H334.763C330.406 469.333 326.228 467.603 323.147 464.522C320.067 461.441 318.336 457.263 318.336 452.907C318.336 448.55 320.067 444.372 323.147 441.291C326.228 438.211 330.406 436.48 334.763 436.48H364.416C404.309 436.48 436.523 404.053 436.523 364.373V334.933C436.523 330.577 438.253 326.399 441.334 323.318C444.414 320.237 448.593 318.507 452.949 318.507C457.306 318.507 461.484 320.237 464.565 323.318C467.645 326.399 469.376 330.577 469.376 334.933V364.373C469.319 392.193 458.243 418.857 438.572 438.529C418.9 458.201 392.236 469.277 364.416 469.333V469.333ZM196.906 469.333H147.627C119.807 469.277 93.1425 458.201 73.4708 438.529C53.7992 418.857 42.7229 392.193 42.6665 364.373V315.093C42.6665 305.92 49.9198 298.667 59.0932 298.667C68.2665 298.667 75.5198 305.92 75.5198 315.093V364.373C75.5198 404.267 107.947 436.48 147.627 436.48H196.906C201.263 436.48 205.441 438.211 208.522 441.291C211.603 444.372 213.333 448.55 213.333 452.907C213.333 457.263 211.603 461.441 208.522 464.522C205.441 467.603 201.263 469.333 196.906 469.333ZM393.813 239.573H118.187C113.83 239.573 109.652 241.304 106.571 244.385C103.491 247.465 101.76 251.643 101.76 256C101.76 260.357 103.491 264.535 106.571 267.615C109.652 270.696 113.83 272.427 118.187 272.427H393.813C398.17 272.427 402.348 270.696 405.429 267.615C408.509 264.535 410.24 260.357 410.24 256C410.24 251.643 408.509 247.465 405.429 244.385C402.348 241.304 398.17 239.573 393.813 239.573ZM147.157 297.387V304.427C147.157 339.84 175.744 368.427 211.157 368.427H300.757C336.171 368.427 364.757 339.84 364.757 304.427V297.387C364.757 294.827 362.837 292.907 360.277 292.907H151.637C149.077 292.907 147.157 294.827 147.157 297.387V297.387Z" fill="url(#paint1_linear_142_142)"/>
<path opacity="0.4" d="M147.157 214.613V207.573C147.157 172.16 175.744 143.573 211.157 143.573H300.757C336.171 143.573 364.757 172.16 364.757 207.573V214.613C364.757 217.173 362.837 219.093 360.277 219.093H151.637C149.077 219.093 147.157 217.173 147.157 214.613V214.613Z" fill="url(#paint2_linear_142_142)"/>
<defs>
<linearGradient id="paint0_linear_142_142" x1="256" y1="42.6667" x2="256" y2="213.333" gradientUnits="userSpaceOnUse">
<stop stop-color="#A816DB"/>
<stop offset="1" stop-color="#16C1DB"/>
</linearGradient>
<linearGradient id="paint1_linear_142_142" x1="256.021" y1="239.573" x2="256.021" y2="469.333" gradientUnits="userSpaceOnUse">
<stop stop-color="#A816DB"/>
<stop offset="1" stop-color="#16C1DB"/>
</linearGradient>
<linearGradient id="paint2_linear_142_142" x1="255.957" y1="143.573" x2="255.957" y2="219.093" gradientUnits="userSpaceOnUse">
<stop stop-color="#A816DB"/>
<stop offset="1" stop-color="#16C1DB"/>
</linearGradient>
</defs>
</svg>
