<svg width="512" height="512" viewBox="0 0 512 512" fill="none" xmlns="http://www.w3.org/2000/svg">
<path opacity="0.4" d="M234.667 344.533V402.133C234.667 450.133 215.467 469.333 167.467 469.333H109.867C61.8667 469.333 42.6667 450.133 42.6667 402.133V344.533C42.6667 296.533 61.8667 277.333 109.867 277.333H167.467C215.467 277.333 234.667 296.533 234.667 344.533ZM373.333 234.667C385.94 234.667 398.424 232.184 410.071 227.359C421.718 222.535 432.301 215.463 441.216 206.549C450.13 197.635 457.201 187.052 462.026 175.404C466.85 163.757 469.333 151.274 469.333 138.667C469.333 126.06 466.85 113.576 462.026 101.929C457.201 90.2819 450.13 79.6989 441.216 70.7845C432.301 61.8701 421.718 54.7988 410.071 49.9743C398.424 45.1499 385.94 42.6667 373.333 42.6667C347.873 42.6667 323.455 52.781 305.451 70.7845C287.448 88.788 277.333 113.206 277.333 138.667C277.333 164.128 287.448 188.545 305.451 206.549C323.455 224.552 347.873 234.667 373.333 234.667V234.667Z" fill="url(#paint0_linear_64_3701)"/>
<path d="M315.307 469.333C312.473 469.318 309.694 468.552 307.252 467.113C304.811 465.675 302.794 463.615 301.407 461.144C300.019 458.673 299.312 455.879 299.355 453.046C299.398 450.212 300.191 447.441 301.653 445.013L322.347 410.453C326.827 402.773 336.64 400.427 344.32 404.907C352 409.387 354.347 419.2 349.867 426.88L346.027 433.28C372.212 426.489 395.403 411.201 411.966 389.813C428.528 368.424 437.525 342.145 437.547 315.093C437.547 306.347 444.8 299.093 453.547 299.093C462.293 299.093 469.333 306.347 469.333 315.307C469.333 400.213 400.213 469.333 315.307 469.333V469.333ZM58.6667 212.693C49.9201 212.693 42.6667 205.653 42.6667 196.693C42.6667 111.787 111.787 42.6667 196.693 42.6667C202.667 42.6667 207.787 45.8668 210.773 50.7734C213.547 55.8934 213.547 61.8667 210.56 66.9867L189.867 101.333C185.173 109.013 175.36 111.573 167.893 106.88C166.082 105.806 164.5 104.384 163.24 102.697C161.98 101.009 161.066 99.089 160.551 97.0469C160.035 95.0048 159.928 92.8809 160.237 90.7975C160.545 88.714 161.262 86.7121 162.347 84.9067L166.187 78.5067C113.707 92.1601 74.6667 139.947 74.6667 196.693C74.6667 205.653 67.4134 212.693 58.6667 212.693Z" fill="url(#paint1_linear_64_3701)"/>
<defs>
<linearGradient id="paint0_linear_64_3701" x1="256" y1="42.6667" x2="256" y2="469.333" gradientUnits="userSpaceOnUse">
<stop stop-color="#A816DB"/>
<stop offset="1" stop-color="#16C1DB"/>
</linearGradient>
<linearGradient id="paint1_linear_64_3701" x1="256" y1="42.6667" x2="256" y2="469.333" gradientUnits="userSpaceOnUse">
<stop stop-color="#A816DB"/>
<stop offset="1" stop-color="#16C1DB"/>
</linearGradient>
</defs>
</svg>
