<svg width="512" height="512" viewBox="0 0 512 512" fill="none" xmlns="http://www.w3.org/2000/svg">
<path opacity="0.4" d="M42.6665 274.795V237.248C42.6665 215.061 60.7998 196.715 83.1998 196.715C121.813 196.715 137.6 169.408 118.187 135.915C107.093 116.715 113.707 91.7546 133.12 80.6613L170.027 59.5413C186.88 49.5146 208.64 55.488 218.667 72.3413L221.013 76.3946C240.213 109.888 271.787 109.888 291.2 76.3946L293.547 72.3413C303.573 55.488 325.333 49.5146 342.187 59.5413L379.093 80.6613C398.507 91.7546 405.12 116.715 394.026 135.915C374.613 169.408 390.4 196.715 429.013 196.715C451.2 196.715 469.547 214.848 469.547 237.248V274.795C469.547 296.981 451.413 315.328 429.013 315.328C390.4 315.328 374.613 342.635 394.026 376.128C405.12 395.541 398.507 420.288 379.093 431.381L342.187 452.501C325.333 462.528 303.573 456.555 293.547 439.701L291.2 435.648C272 402.155 240.427 402.155 221.013 435.648L218.667 439.701C208.64 456.555 186.88 462.528 170.027 452.501L133.12 431.381C123.821 426.027 117.026 417.202 114.226 406.843C111.426 396.484 112.851 385.438 118.187 376.128C137.6 342.635 121.813 315.328 83.1998 315.328C60.7998 315.328 42.6665 296.981 42.6665 274.795V274.795Z" fill="url(#paint0_linear_64_3683)"/>
<path d="M256 325.333C274.388 325.333 292.023 318.029 305.026 305.026C318.028 292.023 325.333 274.388 325.333 256C325.333 237.612 318.028 219.976 305.026 206.974C292.023 193.971 274.388 186.667 256 186.667C237.611 186.667 219.976 193.971 206.974 206.974C193.971 219.976 186.667 237.612 186.667 256C186.667 274.388 193.971 292.023 206.974 305.026C219.976 318.029 237.611 325.333 256 325.333V325.333Z" fill="url(#paint1_linear_64_3683)"/>
<defs>
<linearGradient id="paint0_linear_64_3683" x1="256.107" y1="54.6581" x2="256.107" y2="457.385" gradientUnits="userSpaceOnUse">
<stop stop-color="#A816DB"/>
<stop offset="1" stop-color="#16C1DB"/>
</linearGradient>
<linearGradient id="paint1_linear_64_3683" x1="256" y1="186.667" x2="256" y2="325.333" gradientUnits="userSpaceOnUse">
<stop stop-color="#A816DB"/>
<stop offset="1" stop-color="#16C1DB"/>
</linearGradient>
</defs>
</svg>
