<svg width="512" height="512" viewBox="0 0 512 512" fill="none" xmlns="http://www.w3.org/2000/svg">
<path d="M357.333 75.9467V42.6667C357.333 33.9201 350.08 26.6667 341.333 26.6667C332.587 26.6667 325.333 33.9201 325.333 42.6667V74.6667H186.667V42.6667C186.667 33.9201 179.413 26.6667 170.667 26.6667C161.92 26.6667 154.667 33.9201 154.667 42.6667V75.9467C97.0666 81.2801 69.1199 115.627 64.8533 166.613C64.4266 172.8 69.5466 177.92 75.5199 177.92H436.48C442.667 177.92 447.787 172.587 447.147 166.613C442.88 115.627 414.933 81.2801 357.333 75.9467V75.9467Z" fill="url(#paint0_linear_64_3692)"/>
<path opacity="0.4" d="M448 231.211V268.331C448 281.344 436.48 291.371 423.68 289.237C417.707 288.384 411.52 287.744 405.333 287.744C374.232 287.8 344.42 300.18 322.428 322.172C300.436 344.165 288.056 373.976 288 405.077C288 414.891 291.84 428.544 295.893 440.917C296.989 444.131 297.3 447.561 296.8 450.919C296.301 454.278 295.005 457.468 293.022 460.224C291.039 462.98 288.425 465.221 285.399 466.761C282.373 468.302 279.022 469.096 275.627 469.077H170.667C96 469.077 64 426.411 64 362.411V230.997C64 219.264 73.6 209.664 85.3333 209.664H426.667C438.4 209.877 448 219.477 448 231.211Z" fill="url(#paint1_linear_64_3692)"/>
<path d="M405.333 320C358.187 320 320 358.187 320 405.333C320 452.48 358.187 490.667 405.333 490.667C452.48 490.667 490.667 452.48 490.667 405.333C490.667 358.187 452.48 320 405.333 320ZM439.467 440.32C436.267 443.52 432.213 445.013 428.16 445.013C424.107 445.013 420.053 443.52 416.853 440.32L405.547 429.013L393.813 440.747C390.613 443.947 386.56 445.44 382.507 445.44C378.453 445.44 374.4 443.947 371.2 440.747C368.224 437.736 366.556 433.673 366.556 429.44C366.556 425.207 368.224 421.144 371.2 418.133L382.933 406.4L371.627 395.093C368.651 392.082 366.982 388.02 366.982 383.787C366.982 379.553 368.651 375.491 371.627 372.48C377.813 366.293 388.053 366.293 394.24 372.48L405.547 383.787L416.213 373.12C422.4 366.933 432.64 366.933 438.827 373.12C445.013 379.307 445.013 389.547 438.827 395.733L428.16 406.4L439.467 417.707C445.653 424.107 445.653 434.133 439.467 440.32V440.32ZM181.333 320C175.787 320 170.24 317.653 166.187 313.813C162.347 309.76 160 304.213 160 298.667C160 293.12 162.347 287.573 166.187 283.52C171.093 278.613 178.56 276.267 185.6 277.76C186.88 277.973 188.16 278.4 189.44 279.04C190.72 279.467 192 280.107 193.28 280.96L196.48 283.52C200.32 287.573 202.667 293.12 202.667 298.667C202.667 304.213 200.32 309.76 196.48 313.813L193.28 316.373C192 317.227 190.72 317.867 189.44 318.293C188.16 318.933 186.88 319.36 185.6 319.573C184.107 319.787 182.613 320 181.333 320ZM256 320C250.453 320 244.907 317.653 240.853 313.813C237.013 309.76 234.667 304.213 234.667 298.667C234.667 293.12 237.013 287.573 240.853 283.52C248.96 275.627 263.253 275.627 271.147 283.52C274.987 287.573 277.333 293.12 277.333 298.667C277.333 304.213 274.987 309.76 271.147 313.813C267.093 317.653 261.547 320 256 320ZM181.333 394.645C175.787 394.645 170.24 392.299 166.187 388.459C162.347 384.405 160 378.859 160 373.312C160 367.765 162.347 362.219 166.187 358.165C168.32 356.245 170.453 354.752 173.227 353.685C181.12 350.272 190.507 352.192 196.48 358.165C200.32 362.219 202.667 367.765 202.667 373.312C202.667 378.859 200.32 384.405 196.48 388.459C192.427 392.299 186.88 394.645 181.333 394.645Z" fill="url(#paint2_linear_64_3692)"/>
<defs>
<linearGradient id="paint0_linear_64_3692" x1="256.015" y1="26.6667" x2="256.015" y2="177.92" gradientUnits="userSpaceOnUse">
<stop stop-color="#A816DB"/>
<stop offset="1" stop-color="#16C1DB"/>
</linearGradient>
<linearGradient id="paint1_linear_64_3692" x1="256" y1="209.664" x2="256" y2="469.078" gradientUnits="userSpaceOnUse">
<stop stop-color="#A816DB"/>
<stop offset="1" stop-color="#16C1DB"/>
</linearGradient>
<linearGradient id="paint2_linear_64_3692" x1="325.333" y1="277.314" x2="325.333" y2="490.667" gradientUnits="userSpaceOnUse">
<stop stop-color="#A816DB"/>
<stop offset="1" stop-color="#16C1DB"/>
</linearGradient>
</defs>
</svg>
