<svg width="512" height="512" viewBox="0 0 512 512" fill="none" xmlns="http://www.w3.org/2000/svg">
<g clip-path="url(#clip0_37_132)">
<path opacity="0.4" d="M256.021 370.133C265.244 370.133 274.089 366.47 280.61 359.948C287.131 353.427 290.795 344.582 290.795 335.36C290.795 326.138 287.131 317.293 280.61 310.772C274.089 304.25 265.244 300.587 256.021 300.587C246.799 300.587 237.954 304.25 231.433 310.772C224.912 317.293 221.248 326.138 221.248 335.36C221.248 344.582 224.912 353.427 231.433 359.948C237.954 366.47 246.799 370.133 256.021 370.133V370.133Z" fill="white"/>
<path d="M355.2 201.408H156.8C69.3334 201.408 42.6667 228.075 42.6667 315.541V355.221C42.6667 442.688 69.3334 469.355 156.8 469.355H355.2C442.667 469.355 469.333 442.688 469.333 355.221V315.541C469.333 228.075 442.667 201.408 355.2 201.408V201.408ZM256 399.808C220.373 399.808 191.573 370.795 191.573 335.381C191.573 299.968 220.373 270.955 256 270.955C291.627 270.955 320.427 299.968 320.427 335.381C320.427 370.795 291.627 399.808 256 399.808Z" fill="white"/>
<g opacity="0.4">
<path d="M151.872 201.6V176.64C151.872 114.133 169.579 72.5333 255.979 72.5333C342.379 72.5333 360.085 114.133 360.085 176.64V201.6C370.965 201.813 380.779 202.24 389.952 203.52V176.64C389.952 119.04 376.085 42.6667 255.979 42.6667C135.872 42.6667 122.005 119.04 122.005 176.64V203.307C130.965 202.24 140.992 201.6 151.872 201.6V201.6Z" fill="white"/>
<path d="M151.872 201.6V176.64C151.872 114.133 169.579 72.5333 255.979 72.5333C342.379 72.5333 360.085 114.133 360.085 176.64V201.6C370.965 201.813 380.779 202.24 389.952 203.52V176.64C389.952 119.04 376.085 42.6667 255.979 42.6667C135.872 42.6667 122.005 119.04 122.005 176.64V203.307C130.965 202.24 140.992 201.6 151.872 201.6V201.6Z" fill="white"/>
<path d="M151.872 201.6V176.64C151.872 114.133 169.579 72.5333 255.979 72.5333C342.379 72.5333 360.085 114.133 360.085 176.64V201.6C370.965 201.813 380.779 202.24 389.952 203.52V176.64C389.952 119.04 376.085 42.6667 255.979 42.6667C135.872 42.6667 122.005 119.04 122.005 176.64V203.307C130.965 202.24 140.992 201.6 151.872 201.6V201.6Z" fill="white"/>
</g>
<g clip-path="url(#clip1_37_132)">
<path opacity="0.4" d="M256.021 370.133C265.244 370.133 274.089 366.47 280.61 359.948C287.131 353.427 290.795 344.582 290.795 335.36C290.795 326.138 287.131 317.293 280.61 310.772C274.089 304.25 265.244 300.587 256.021 300.587C246.799 300.587 237.954 304.25 231.433 310.772C224.912 317.293 221.248 326.138 221.248 335.36C221.248 344.582 224.912 353.427 231.433 359.948C237.954 366.47 246.799 370.133 256.021 370.133V370.133Z" fill="white"/>
<path d="M355.2 201.408H156.8C69.3334 201.408 42.6667 228.075 42.6667 315.541V355.221C42.6667 442.688 69.3334 469.355 156.8 469.355H355.2C442.667 469.355 469.333 442.688 469.333 355.221V315.541C469.333 228.075 442.667 201.408 355.2 201.408V201.408ZM256 399.808C220.373 399.808 191.573 370.795 191.573 335.381C191.573 299.968 220.373 270.955 256 270.955C291.627 270.955 320.427 299.968 320.427 335.381C320.427 370.795 291.627 399.808 256 399.808Z" fill="white"/>
<g opacity="0.4">
<path d="M151.872 201.6V176.64C151.872 114.133 169.579 72.5333 255.979 72.5333C342.379 72.5333 360.085 114.133 360.085 176.64V201.6C370.965 201.813 380.779 202.24 389.952 203.52V176.64C389.952 119.04 376.085 42.6667 255.979 42.6667C135.872 42.6667 122.005 119.04 122.005 176.64V203.307C130.965 202.24 140.992 201.6 151.872 201.6V201.6Z" fill="white"/>
<path d="M151.872 201.6V176.64C151.872 114.133 169.579 72.5333 255.979 72.5333C342.379 72.5333 360.085 114.133 360.085 176.64V201.6C370.965 201.813 380.779 202.24 389.952 203.52V176.64C389.952 119.04 376.085 42.6667 255.979 42.6667C135.872 42.6667 122.005 119.04 122.005 176.64V203.307C130.965 202.24 140.992 201.6 151.872 201.6V201.6Z" fill="white"/>
<path d="M151.872 201.6V176.64C151.872 114.133 169.579 72.5333 255.979 72.5333C342.379 72.5333 360.085 114.133 360.085 176.64V201.6C370.965 201.813 380.779 202.24 389.952 203.52V176.64C389.952 119.04 376.085 42.6667 255.979 42.6667C135.872 42.6667 122.005 119.04 122.005 176.64V203.307C130.965 202.24 140.992 201.6 151.872 201.6V201.6Z" fill="white"/>
</g>
<path opacity="0.4" d="M256.021 370.133C265.244 370.133 274.089 366.47 280.61 359.948C287.131 353.427 290.795 344.582 290.795 335.36C290.795 326.138 287.131 317.293 280.61 310.772C274.089 304.25 265.244 300.587 256.021 300.587C246.799 300.587 237.954 304.25 231.433 310.772C224.912 317.293 221.248 326.138 221.248 335.36C221.248 344.582 224.912 353.427 231.433 359.948C237.954 366.47 246.799 370.133 256.021 370.133V370.133Z" fill="white"/>
<path d="M355.2 201.408H156.8C69.3334 201.408 42.6667 228.075 42.6667 315.541V355.221C42.6667 442.688 69.3334 469.355 156.8 469.355H355.2C442.667 469.355 469.333 442.688 469.333 355.221V315.541C469.333 228.075 442.667 201.408 355.2 201.408V201.408ZM256 399.808C220.373 399.808 191.573 370.795 191.573 335.381C191.573 299.968 220.373 270.955 256 270.955C291.627 270.955 320.427 299.968 320.427 335.381C320.427 370.795 291.627 399.808 256 399.808Z" fill="white"/>
<g opacity="0.4">
<path d="M151.872 201.6V176.64C151.872 114.133 169.579 72.5333 255.979 72.5333C342.379 72.5333 360.085 114.133 360.085 176.64V201.6C370.965 201.813 380.779 202.24 389.952 203.52V176.64C389.952 119.04 376.085 42.6667 255.979 42.6667C135.872 42.6667 122.005 119.04 122.005 176.64V203.307C130.965 202.24 140.992 201.6 151.872 201.6V201.6Z" fill="white"/>
<path d="M151.872 201.6V176.64C151.872 114.133 169.579 72.5333 255.979 72.5333C342.379 72.5333 360.085 114.133 360.085 176.64V201.6C370.965 201.813 380.779 202.24 389.952 203.52V176.64C389.952 119.04 376.085 42.6667 255.979 42.6667C135.872 42.6667 122.005 119.04 122.005 176.64V203.307C130.965 202.24 140.992 201.6 151.872 201.6V201.6Z" fill="white"/>
<path d="M151.872 201.6V176.64C151.872 114.133 169.579 72.5333 255.979 72.5333C342.379 72.5333 360.085 114.133 360.085 176.64V201.6C370.965 201.813 380.779 202.24 389.952 203.52V176.64C389.952 119.04 376.085 42.6667 255.979 42.6667C135.872 42.6667 122.005 119.04 122.005 176.64V203.307C130.965 202.24 140.992 201.6 151.872 201.6V201.6Z" fill="white"/>
</g>
</g>
</g>
<defs>
<clipPath id="clip0_37_132">
<rect width="512" height="512" fill="white"/>
</clipPath>
<clipPath id="clip1_37_132">
<rect width="512" height="512" fill="white"/>
</clipPath>
</defs>
</svg>
