<svg width="512" height="512" viewBox="0 0 512 512" fill="none" xmlns="http://www.w3.org/2000/svg">
<rect x="10" y="10" width="492" height="492" rx="83" fill="white" stroke="url(#paint0_linear_54_162)" stroke-width="20"/>
<path d="M395.8 86.7044C397.84 88.8293 399.094 91.5585 399.356 94.4462C399.617 97.3339 398.872 100.209 397.242 102.603L309.098 232.212L392.501 257.228C394.953 257.962 397.141 259.38 398.796 261.307C400.45 263.233 401.499 265.584 401.813 268.068C402.127 270.553 401.692 273.063 400.561 275.289C399.431 277.514 397.654 279.358 395.452 280.592L132.289 428.318C129.742 429.749 126.763 430.287 123.837 429.843C120.911 429.399 118.211 428.001 116.177 425.875C114.143 423.75 112.895 421.022 112.636 418.138C112.377 415.254 113.122 412.382 114.751 409.992L202.902 280.358L119.499 255.342C117.047 254.608 114.859 253.19 113.205 251.264C111.55 249.337 110.501 246.986 110.187 244.502C109.873 242.017 110.308 239.507 111.439 237.281C112.569 235.056 114.346 233.212 116.549 231.978L379.711 84.252C382.255 82.823 385.23 82.2852 388.152 82.726C391.075 83.1668 393.773 84.5603 395.808 86.68L395.8 86.7044ZM155.876 239.587L227.232 260.989C229.196 261.578 230.998 262.608 232.493 263.996C233.988 265.384 235.134 267.092 235.839 268.981C236.545 270.871 236.789 272.89 236.553 274.876C236.318 276.862 235.608 278.76 234.482 280.416L167.545 378.815L356.099 272.975L284.768 251.581C282.804 250.992 281.002 249.962 279.507 248.574C278.012 247.186 276.866 245.479 276.161 243.589C275.455 241.699 275.211 239.68 275.447 237.694C275.682 235.708 276.392 233.81 277.518 232.154L344.455 133.755L155.876 239.587Z" fill="url(#paint1_linear_54_162)"/>
<path d="M155.876 239.587L227.232 260.989C229.196 261.578 230.998 262.608 232.493 263.996C233.988 265.384 235.134 267.092 235.839 268.981C236.545 270.871 236.789 272.89 236.553 274.876C236.318 276.862 235.608 278.76 234.482 280.416L167.545 378.815L356.099 272.975L284.768 251.581C282.804 250.992 281.002 249.962 279.507 248.574C278.012 247.186 276.866 245.479 276.161 243.589C275.455 241.699 275.211 239.68 275.447 237.694C275.682 235.708 276.392 233.81 277.518 232.154L344.455 133.755L155.876 239.587Z" fill="url(#paint2_linear_54_162)"/>
<defs>
<linearGradient id="paint0_linear_54_162" x1="256" y1="0" x2="256" y2="512" gradientUnits="userSpaceOnUse">
<stop stop-color="#A816DB"/>
<stop offset="1" stop-color="#16C1DB"/>
</linearGradient>
<linearGradient id="paint1_linear_54_162" x1="314.706" y1="60.5564" x2="197.294" y2="452.014" gradientUnits="userSpaceOnUse">
<stop stop-color="#16C1DB"/>
<stop offset="0.9999" stop-color="#A816DB"/>
<stop offset="1" stop-color="#A816DB" stop-opacity="0"/>
</linearGradient>
<linearGradient id="paint2_linear_54_162" x1="314.706" y1="60.5564" x2="197.294" y2="452.014" gradientUnits="userSpaceOnUse">
<stop stop-color="#16C1DB"/>
<stop offset="0.9999" stop-color="#A816DB"/>
<stop offset="1" stop-color="#A816DB" stop-opacity="0"/>
</linearGradient>
</defs>
</svg>
