<svg width="512" height="512" viewBox="0 0 512 512" fill="none" xmlns="http://www.w3.org/2000/svg">
<path opacity="0.4" d="M256 469.333C138.24 469.333 42.6667 373.76 42.6667 256C42.6667 138.24 138.24 42.6667 256 42.6667C373.76 42.6667 469.333 138.24 469.333 256C469.333 373.76 373.76 469.333 256 469.333Z" fill="url(#paint0_linear_18_178)"/>
<path d="M93 175.752H167.323C181.974 175.752 193.791 177.734 202.773 181.697C211.829 185.66 219.302 191.348 225.191 198.76C231.081 206.172 235.352 214.796 238.002 224.63C240.652 234.465 241.978 244.886 241.978 255.895C241.978 273.141 239.99 286.535 236.014 296.076C232.112 305.543 226.664 313.506 219.67 319.964C212.675 326.349 205.166 330.606 197.141 332.734C186.171 335.67 176.232 337.138 167.323 337.138H93V175.752ZM143.027 212.301V300.479H155.286C165.74 300.479 173.176 299.342 177.594 297.067C182.011 294.718 185.471 290.682 187.975 284.957C190.478 279.159 191.729 269.802 191.729 256.885C191.729 239.785 188.932 228.08 183.336 221.768C177.741 215.456 168.464 212.301 155.507 212.301H143.027Z" fill="url(#paint1_linear_18_178)"/>
<path d="M376.157 271.196L420 284.407C417.055 296.663 412.417 306.901 406.085 315.121C399.753 323.34 391.876 329.542 382.452 333.725C373.102 337.908 361.175 340 346.671 340C329.075 340 314.681 337.468 303.49 332.404C292.373 327.267 282.765 318.276 274.667 305.433C266.568 292.59 262.519 276.15 262.519 256.115C262.519 229.401 269.623 208.888 283.833 194.577C298.116 180.192 318.289 173 344.352 173C364.745 173 380.759 177.11 392.391 185.33C404.097 193.549 412.785 206.172 418.454 223.199L374.28 232.997C372.734 228.08 371.114 224.483 369.42 222.208C366.623 218.392 363.199 215.456 359.15 213.401C355.101 211.347 350.573 210.319 345.566 210.319C334.228 210.319 325.541 214.869 319.504 223.97C314.939 230.722 312.657 241.327 312.657 255.784C312.657 273.692 315.381 285.985 320.829 292.663C326.277 299.268 333.934 302.571 343.799 302.571C353.37 302.571 360.586 299.892 365.445 294.535C370.378 289.177 373.948 281.398 376.157 271.196Z" fill="url(#paint2_linear_18_178)"/>
<defs>
<linearGradient id="paint0_linear_18_178" x1="256" y1="42.6667" x2="256" y2="469.333" gradientUnits="userSpaceOnUse">
<stop stop-color="#16C1DB"/>
<stop offset="1" stop-color="#A816DB"/>
</linearGradient>
<linearGradient id="paint1_linear_18_178" x1="366.565" y1="79.4743" x2="366.565" y2="401.554" gradientUnits="userSpaceOnUse">
<stop stop-color="#16C1DB"/>
<stop offset="1" stop-color="#A816DB"/>
</linearGradient>
<linearGradient id="paint2_linear_18_178" x1="366.565" y1="79.4743" x2="366.565" y2="401.554" gradientUnits="userSpaceOnUse">
<stop stop-color="#16C1DB"/>
<stop offset="1" stop-color="#A816DB"/>
</linearGradient>
</defs>
</svg>
