<svg width="512" height="512" viewBox="0 0 512 512" fill="none" xmlns="http://www.w3.org/2000/svg">
<path opacity="0.4" d="M256 42.6667C200.107 42.6667 154.667 88.1067 154.667 144C154.667 198.827 197.547 243.2 253.44 245.12C255.147 244.907 256.853 244.907 258.133 245.12H259.627C285.853 244.245 310.711 233.205 328.945 214.334C347.179 195.463 357.359 170.241 357.333 144C357.333 88.1067 311.893 42.6667 256 42.6667Z" fill="black"/>
<path d="M364.373 301.845C304.853 262.165 207.787 262.165 147.84 301.845C120.747 319.979 105.813 344.512 105.813 370.752C105.813 396.992 120.747 421.312 147.627 439.232C177.493 459.285 216.747 469.312 256 469.312C295.253 469.312 334.507 459.285 364.373 439.232C391.253 421.099 406.187 396.779 406.187 370.325C405.973 344.085 391.253 319.765 364.373 301.845V301.845Z" fill="black"/>
</svg>
