<svg width="512" height="512" viewBox="0 0 512 512" fill="none" xmlns="http://www.w3.org/2000/svg">
<g clip-path="url(#clip0_17_159)">
<path opacity="0.4" d="M449.067 249.813V377.6C449.067 436.48 401.28 484.267 342.4 484.267H155.947C151.04 484.267 146.133 483.84 141.44 483.2C149.333 479.787 156.373 475.093 162.773 469.333C163.627 468.693 164.267 468.053 164.907 467.2C170.667 462.293 175.573 456.107 179.627 449.28C187.52 436.48 192 421.333 192 405.333C192 382.933 183.253 362.667 169.173 347.307C167.04 344.96 164.693 342.613 162.133 340.693C147.2 327.68 128 320 106.667 320C91.52 320 77.2267 324.053 64.8534 331.093C60.8 333.227 56.96 335.787 53.3334 338.773C51.84 339.84 50.56 341.12 49.28 342.4V251.307C65.4934 268.8 88.5334 278.827 113.493 278.827C140.373 278.827 166.187 265.387 182.4 243.84C189.803 254.705 199.767 263.579 211.413 269.681C223.058 275.783 236.027 278.924 249.173 278.827C276.48 278.827 300.8 266.027 315.52 244.693C331.947 265.813 357.333 278.827 383.787 278.827C409.6 278.827 433.067 268.373 449.067 249.813V249.813Z" fill="black"/>
<path d="M312.939 33.4933H184.939L169.152 190.507C167.872 205.013 170.005 218.667 175.339 231.04C187.712 260.053 216.725 278.827 249.152 278.827C282.005 278.827 310.379 260.48 323.179 231.253C327.019 222.08 329.365 211.413 329.579 200.533V196.48L312.939 33.4933V33.4933Z" fill="black"/>
<path opacity="0.6" d="M470.187 183.232L464.213 123.925C455.253 59.4987 426.027 33.2587 363.52 33.2587H281.6L297.387 193.259C297.6 195.392 297.813 197.739 297.813 201.792C299.093 212.885 302.507 223.125 307.627 232.299C322.987 260.459 352.853 278.592 384 278.592C412.373 278.592 437.973 266.005 453.973 243.819C466.56 226.965 472.32 205.419 470.187 183.232V183.232ZM133.76 33.4933C71.0401 33.4933 42.0268 59.7333 32.8534 124.8L27.0934 183.467C24.9601 206.293 31.1468 228.48 44.5868 245.76C60.8001 266.88 85.7601 278.827 113.493 278.827C144.64 278.827 174.507 260.693 189.653 232.96C195.2 223.36 198.827 212.267 199.893 200.747L216.533 33.7067H133.76V33.4933Z" fill="black"/>
<path d="M169.173 347.307C167.04 344.96 164.693 342.613 162.133 340.693C147.2 327.68 128 320 106.667 320C91.5201 320 77.2267 324.053 64.8534 331.093C60.8001 333.227 56.9601 335.787 53.3334 338.773C43.3196 346.731 35.2384 356.854 29.6963 368.382C24.1541 379.909 21.2949 392.543 21.3334 405.333C21.3334 421.333 25.8134 436.48 33.7067 449.28C35.6267 452.693 37.9734 455.893 40.5334 458.88C40.9601 459.52 41.6001 459.947 42.0267 460.587C57.3867 478.933 80.6401 490.667 106.667 490.667C128.213 490.667 147.84 482.773 162.773 469.333C163.627 468.693 164.267 468.053 164.907 467.2C170.667 462.293 175.573 456.107 179.627 449.28C187.52 436.48 192 421.333 192 405.333C192 382.933 183.253 362.667 169.173 347.307ZM138.667 420.907H122.667V437.547C122.667 446.293 115.413 453.547 106.667 453.547C97.9201 453.547 90.6667 446.293 90.6667 437.547V420.907H74.6667C65.9201 420.907 58.6667 413.653 58.6667 404.907C58.6667 396.16 65.9201 388.907 74.6667 388.907H90.6667V373.76C90.6667 365.013 97.9201 357.76 106.667 357.76C115.413 357.76 122.667 365.013 122.667 373.76V388.907H138.667C147.413 388.907 154.667 396.16 154.667 404.907C154.667 413.653 147.413 420.907 138.667 420.907Z" fill="black"/>
</g>
<defs>
<clipPath id="clip0_17_159">
<rect width="512" height="512" fill="white"/>
</clipPath>
</defs>
</svg>
