<svg width="512" height="512" viewBox="0 0 512 512" fill="none" xmlns="http://www.w3.org/2000/svg">
<path opacity="0.4" d="M345.387 42.6665H166.827C88.9601 42.6665 42.6667 88.9598 42.6667 166.613V345.173C42.6667 422.826 88.9601 469.12 166.613 469.12H345.173C422.827 469.12 469.12 422.826 469.12 345.173V166.613C469.333 88.9598 423.04 42.6665 345.387 42.6665Z" fill="url(#paint0_linear_64_3709)"/>
<path d="M296.96 180.907H187.093L194.133 173.867C200.32 167.68 200.32 157.44 194.133 151.253C191.122 148.278 187.06 146.609 182.827 146.609C178.594 146.609 174.531 148.278 171.52 151.253L138.027 184.747C131.84 190.933 131.84 201.173 138.027 207.36L171.52 240.853C174.72 244.053 178.773 245.547 182.827 245.547C186.88 245.547 190.933 244.053 194.133 240.853C200.32 234.667 200.32 224.427 194.133 218.24L188.587 212.693H296.96C324.267 212.693 346.667 234.88 346.667 262.4C346.667 289.92 324.48 312.107 296.96 312.107H192C183.253 312.107 176 319.36 176 328.107C176 336.853 183.253 344.107 192 344.107H296.96C341.973 344.107 378.667 307.413 378.667 262.4C378.667 217.387 341.973 180.907 296.96 180.907V180.907Z" fill="url(#paint1_linear_64_3709)"/>
<defs>
<linearGradient id="paint0_linear_64_3709" x1="255.894" y1="42.6665" x2="255.894" y2="469.12" gradientUnits="userSpaceOnUse">
<stop stop-color="#16C1DB"/>
<stop offset="1" stop-color="#A816DB"/>
</linearGradient>
<linearGradient id="paint1_linear_64_3709" x1="256.027" y1="146.609" x2="256.027" y2="344.107" gradientUnits="userSpaceOnUse">
<stop stop-color="#16C1DB"/>
<stop offset="1" stop-color="#A816DB"/>
</linearGradient>
</defs>
</svg>
