<svg width="512" height="512" viewBox="0 0 512 512" fill="none" xmlns="http://www.w3.org/2000/svg">
<g clip-path="url(#clip0_18_189)">
<path opacity="0.4" d="M121.453 340.333C123.8 329.88 119.533 314.947 112.067 307.48L60.2267 255.64C44.0134 239.427 37.6134 222.147 42.3067 207.213C47.2134 192.28 62.36 182.04 84.9734 178.2L151.533 167.107C161.133 165.4 172.867 156.867 177.347 148.12L214.04 74.52C224.707 53.4 239.213 41.6667 255 41.6667C270.787 41.6667 285.293 53.4 295.96 74.52L332.653 148.12C335.427 153.667 341.187 159 347.373 162.627L117.613 392.387C114.627 395.373 109.507 392.6 110.36 388.333L121.453 340.333Z" fill="white"/>
<path d="M397.933 307.523C390.253 315.203 385.987 329.923 388.547 340.376L403.267 404.589C409.453 431.256 405.613 451.309 392.387 460.909C386.769 464.836 380.038 466.855 373.187 466.669C362.307 466.669 349.507 462.616 335.427 454.296L272.92 417.176C263.107 411.416 246.893 411.416 237.08 417.176L174.573 454.296C150.893 468.163 130.627 470.509 117.613 460.909C112.707 457.283 109.08 452.376 106.733 445.976L366.147 186.563C375.96 176.749 389.827 172.269 403.267 174.616L424.813 178.243C447.427 182.083 462.573 192.323 467.48 207.256C472.173 222.189 465.773 239.469 449.56 255.683L397.933 307.523V307.523Z" fill="white"/>
</g>
<defs>
<clipPath id="clip0_18_189">
<rect width="512" height="512" fill="white"/>
</clipPath>
</defs>
</svg>
